# xmcd
#
# Track frame offsets:
#	150
#	14189
#	33317
#	48227
#	64812
#	80436
#	96534
#	113934
#	131745
#	149083
#	167107
#	184431
#
# Disc length: 2596 seconds
#
# Revision: 0
# Processed by: cddbd v1.5PL3 Copyright (c) Steve Scherf et al.
# Submitted via: dBpowerAMP V4.0
#
DISCID=b90a220c
DTITLE=Pancho Varona - Pancho Varona
DYEAR=1900
DGENRE=
TTITLE0=Al otro lado
TTITLE1=Las letras de tu nombre
TTITLE2=Tu bufon
TTITLE3=Toda la mitad
TTITLE4=No me importa nada
TTITLE5=Cualquiera menos tu
TTITLE6=Corazon de contrabando
TTITLE7=El Bronx de Fuencarral
TTITLE8=Tus armas
TTITLE9=No es serio
TTITLE10=Camino de vuelta
TTITLE11=Un dia
EXTD=\n
EXTT0=
EXTT1=
EXTT2=
EXTT3=
EXTT4=
EXTT5=
EXTT6=
EXTT7=
EXTT8=
EXTT9=
EXTT10=
EXTT11=
PLAYORDER=
